<svg xmlns="http://www.w3.org/2000/svg" xmlns:svg="http://www.w3.org/2000/svg" id="svg9" width="100" height="100" version="1.1" viewBox="0 0 100 100"><metadata id="metadata15"/><title id="title2">ic_fluent_reading_list_24_regular</title><desc id="desc4">Created with Sketch.</desc><g id="ðŸ”-Product-Icons" fill="none" fill-rule="evenodd" stroke="none" stroke-width="1" transform="matrix(5.3,0,0,5.3,-13.975,-15.5)"><g id="ic_fluent_reading_list_24_regular" fill="#fff" fill-rule="nonzero"><path id="ðŸŽ¨-Color" d="m 7,18 h 13 c 0.414214,0 0.75,0.335786 0.75,0.75 0,0.379696 -0.282154,0.693491 -0.648229,0.743153 L 20,19.5 H 7 c -0.4142136,0 -0.75,-0.335786 -0.75,-0.75 0,-0.379696 0.2821539,-0.693491 0.6482294,-0.743153 z m 10,-3 c 0.414214,0 0.75,0.335786 0.75,0.75 0,0.379696 -0.282154,0.693491 -0.648229,0.743153 L 17,16.5 H 4 c -0.4142136,0 -0.75,-0.335786 -0.75,-0.75 0,-0.379696 0.2821539,-0.693491 0.6482294,-0.743153 L 4,15 Z m 3,-3 c 0.414214,0 0.75,0.335786 0.75,0.75 0,0.379696 -0.282154,0.693491 -0.648229,0.743153 L 20,13.5 H 7 c -0.4142136,0 -0.75,-0.335786 -0.75,-0.75 0,-0.379696 0.2821539,-0.693491 0.6482294,-0.743153 L 7,12 Z M 6,5 C 7.1296138,5 8.1316056,5.6875557 8.5490811,6.7167552 8.7047778,7.100593 8.5198328,7.537972 8.135995,7.6936687 7.7841437,7.8363906 7.3873029,7.6928789 7.2036801,7.3723164 L 7.1590816,7.2805826 C 6.9692535,6.8126007 6.5136928,6.5 6,6.5 5.3096441,6.5 4.75,7.0596441 4.75,7.75 4.75,8.4403559 5.3096441,9 6,9 h 11.5 c 0.414214,0 0.75,0.3357864 0.75,0.75 0,0.379696 -0.282154,0.693491 -0.648229,0.743153 L 17.5,10.5 H 6 C 4.4812169,10.5 3.25,9.2687831 3.25,7.75 3.25,6.2312169 4.4812169,5 6,5 Z m 14,1 c 0.414214,0 0.75,0.3357864 0.75,0.75 0,0.3796958 -0.282154,0.693491 -0.648229,0.7431534 L 20,7.5 h -9 c -0.414214,0 -0.75,-0.3357864 -0.75,-0.75 0,-0.3796958 0.282154,-0.693491 0.648229,-0.7431534 L 11,6 Z"/></g></g></svg>