<svg xmlns="http://www.w3.org/2000/svg" xmlns:svg="http://www.w3.org/2000/svg" id="svg9" width="100" height="100" version="1.1" viewBox="0 0 100 100"><metadata id="metadata15"/><title id="title2">ic_fluent_calendar_24_regular</title><desc id="desc4">Created with Sketch.</desc><g id="ðŸ”-Product-Icons" fill="none" fill-rule="evenodd" stroke="none" stroke-width="1" transform="matrix(5.2222222,0,0,5.2222222,-12.666667,-12.666667)"><g id="ic_fluent_calendar_24_regular" fill="#fff" fill-rule="nonzero"><path id="ðŸŽ¨-Color" d="M 17.75,3 C 19.544925,3 21,4.4550746 21,6.25 v 11.5 C 21,19.544925 19.544925,21 17.75,21 H 6.25 C 4.4550746,21 3,19.544925 3,17.75 V 6.25 C 3,4.4550746 4.4550746,3 6.25,3 Z m 1.75,5.5 h -15 v 9.25 c 0,0.966498 0.7835017,1.75 1.75,1.75 h 11.5 c 0.966498,0 1.75,-0.783502 1.75,-1.75 z m -11.75,6 C 8.4403559,14.5 9,15.059644 9,15.75 9,16.440356 8.4403559,17 7.75,17 7.0596441,17 6.5,16.440356 6.5,15.75 6.5,15.059644 7.0596441,14.5 7.75,14.5 Z m 4.25,0 c 0.690356,0 1.25,0.559644 1.25,1.25 0,0.690356 -0.559644,1.25 -1.25,1.25 -0.690356,0 -1.25,-0.559644 -1.25,-1.25 0,-0.690356 0.559644,-1.25 1.25,-1.25 z m -4.25,-4 C 8.4403559,10.5 9,11.059644 9,11.75 9,12.440356 8.4403559,13 7.75,13 7.0596441,13 6.5,12.440356 6.5,11.75 6.5,11.059644 7.0596441,10.5 7.75,10.5 Z m 4.25,0 c 0.690356,0 1.25,0.559644 1.25,1.25 0,0.690356 -0.559644,1.25 -1.25,1.25 -0.690356,0 -1.25,-0.559644 -1.25,-1.25 0,-0.690356 0.559644,-1.25 1.25,-1.25 z m 4.25,0 c 0.690356,0 1.25,0.559644 1.25,1.25 C 17.5,12.440356 16.940356,13 16.25,13 15.559644,13 15,12.440356 15,11.75 15,11.059644 15.559644,10.5 16.25,10.5 Z m 1.5,-6 H 6.25 C 5.2835017,4.5 4.5,5.2835017 4.5,6.25 V 7 h 15 V 6.25 C 19.5,5.2835017 18.716498,4.5 17.75,4.5 Z"/></g></g></svg>